<svg fill="none" height="69" viewBox="0 0 53 69" width="53" xmlns="http://www.w3.org/2000/svg"><path d="m7.70312 68.9844c-4.40624 0-7.07812-2.7188-7.07812-7.3594v-53.90625c0-4.64063 2.625-7.359375 7.07812-7.359375h20.62498c15.5625 0 24.4688 8.203125 24.4688 21.562525 0 8.4375-4.1719 15.6562-11.625 18.8437l9.75 16.875c1.1719 2.0156 1.5 3.2344 1.5 4.875 0 3.75-3 6.4688-7.125 6.4688-3.375 0-4.9219-1.2188-7.2188-5.3438l-11.25-20.3906h-12.0469v18.375c0 4.6406-2.625 7.3594-7.07808 7.3594zm7.07808-36h12.1876c7.125 0 11.2968-4.0782 11.2968-10.7813 0-6.5625-4.4062-10.7812-11.4375-10.7812h-12.0469z" fill="#fff"/></svg>